<?xml version="1.0" standalone="no"?>
<!DOCTYPE svg PUBLIC "-//W3C//DTD SVG 20010904//EN"
 "http://www.w3.org/TR/2001/REC-SVG-20010904/DTD/svg10.dtd">
<svg version="1.0" xmlns="http://www.w3.org/2000/svg"
 width="1000.000000pt" height="1000.000000pt" viewBox="0 0 1000.000000 1000.000000"
 preserveAspectRatio="xMidYMid meet">
<metadata>
Created by potrace 1.11, written by Peter Selinger 2001-2013
</metadata>
<g transform="translate(0.000000,1000.000000) scale(0.100000,-0.100000)"
fill="#000000" stroke="none">
<path d="M7947 8293 c-12 -12 -101 -24 -212 -29 -60 -2 -130 -9 -155 -15 -25
-5 -63 -9 -85 -8 -44 2 -197 -7 -345 -20 -91 -8 -2510 -5 -2617 3 -28 2 -69 7
-90 11 -21 4 -65 9 -98 11 -218 12 -353 25 -376 34 -38 16 -95 9 -90 -10 3 -8
5 -37 6 -65 1 -27 5 -65 9 -83 18 -79 5 -483 -16 -509 -6 -7 -8 -24 -4 -37 8
-32 44 -37 171 -25 55 5 197 14 315 20 282 15 2899 22 3000 9 87 -11 240 -19
461 -26 171 -4 179 -2 180 52 1 35 -9 194 -17 248 -2 21 1 126 7 233 10 164 9
197 -2 204 -17 10 -33 11 -42 2z"/>
<path d="M2591 8270 c-24 -11 -48 -20 -55 -20 -6 0 -24 -7 -41 -16 -27 -15
-58 -25 -119 -39 -11 -3 -22 -9 -25 -14 -4 -5 -44 -17 -91 -26 -47 -9 -104
-25 -127 -36 -24 -10 -54 -19 -68 -19 -34 0 -32 -10 14 -67 21 -27 42 -60 46
-74 4 -13 22 -44 39 -69 17 -25 32 -52 34 -60 2 -8 10 -18 17 -23 7 -4 19 -22
25 -41 9 -27 18 -36 48 -44 33 -9 34 -10 10 -11 -16 -1 -28 -7 -28 -14 0 -21
30 -57 48 -58 15 0 15 -1 -1 -8 -18 -6 -17 -8 1 -31 10 -14 22 -39 25 -56 3
-18 18 -49 32 -69 14 -21 25 -49 25 -62 0 -13 12 -50 27 -81 15 -31 26 -67 25
-78 -2 -12 4 -28 12 -37 9 -9 16 -21 16 -27 0 -6 15 -17 33 -25 27 -12 28 -14
10 -15 -18 0 -23 -6 -23 -27 0 -49 42 -161 64 -172 18 -8 18 -10 4 -10 -12 -1
-18 -9 -18 -23 1 -47 20 -104 41 -120 11 -10 16 -18 10 -18 -6 0 -8 -7 -4 -15
7 -21 47 -14 109 19 27 14 54 26 61 26 6 0 24 5 40 11 l28 12 -25 7 c-20 7
-17 8 20 9 56 2 130 18 148 34 8 6 21 12 30 13 24 4 146 37 152 41 2 2 -2 8
-10 13 -12 8 -10 10 10 11 14 1 33 1 44 0 41 -3 46 17 18 74 -25 51 -29 55
-62 56 -34 1 -34 1 -9 10 25 9 26 11 14 46 -7 20 -20 42 -29 48 -9 7 -19 27
-22 46 -9 48 -31 79 -57 79 -19 1 -20 2 -6 13 20 15 8 57 -16 57 -8 0 -15 5
-15 10 0 6 5 10 11 10 6 0 2 16 -9 38 -10 20 -27 55 -38 77 -16 35 -24 41 -59
46 -38 5 -38 5 -10 10 27 4 30 7 28 37 -1 41 -37 82 -72 83 -21 1 -22 2 -6 6
39 9 39 22 5 88 -18 36 -38 65 -43 65 -5 0 -4 6 2 14 8 10 6 19 -10 40 -11 15
-24 39 -28 54 -6 23 -14 28 -52 33 -42 6 -42 6 -8 7 20 1 38 4 41 8 3 3 -3 22
-13 42 -10 20 -21 49 -24 65 -3 15 -14 36 -24 46 -10 10 -21 37 -24 60 -3 24
-7 44 -9 46 -15 13 -50 11 -87 -5z m32 -77 c-13 -2 -33 -2 -45 0 -13 2 -3 4
22 4 25 0 35 -2 23 -4z m-106 -39 c-3 -3 -12 -4 -19 -1 -8 3 -5 6 6 6 11 1 17
-2 13 -5z m-390 -80 c-3 -3 -12 -4 -19 -1 -8 3 -5 6 6 6 11 1 17 -2 13 -5z
m211 -41 c-10 -2 -28 -2 -40 0 -13 2 -5 4 17 4 22 1 32 -1 23 -4z m245 -20
c-7 -2 -19 -2 -25 0 -7 3 -2 5 12 5 14 0 19 -2 13 -5z m-116 -9 c-3 -3 -12 -4
-19 -1 -8 3 -5 6 6 6 11 1 17 -2 13 -5z m-4 -141 c-7 -2 -21 -2 -30 0 -10 3
-4 5 12 5 17 0 24 -2 18 -5z m300 0 c-7 -2 -19 -2 -25 0 -7 3 -2 5 12 5 14 0
19 -2 13 -5z m-425 -10 c-10 -2 -26 -2 -35 0 -10 3 -2 5 17 5 19 0 27 -2 18
-5z m265 0 c-7 -2 -21 -2 -30 0 -10 3 -4 5 12 5 17 0 24 -2 18 -5z m-326 -9
c-3 -3 -12 -4 -19 -1 -8 3 -5 6 6 6 11 1 17 -2 13 -5z m370 0 c-3 -3 -12 -4
-19 -1 -8 3 -5 6 6 6 11 1 17 -2 13 -5z m101 -81 c-10 -2 -28 -2 -40 0 -13 2
-5 4 17 4 22 1 32 -1 23 -4z m-270 -20 c-10 -2 -28 -2 -40 0 -13 2 -5 4 17 4
22 1 32 -1 23 -4z m5 -200 c-13 -2 -33 -2 -45 0 -13 2 -3 4 22 4 25 0 35 -2
23 -4z m110 0 c-7 -2 -19 -2 -25 0 -7 3 -2 5 12 5 14 0 19 -2 13 -5z m100 0
c-7 -2 -19 -2 -25 0 -7 3 -2 5 12 5 14 0 19 -2 13 -5z m60 -120 c-13 -2 -35
-2 -50 0 -16 2 -5 4 22 4 28 0 40 -2 28 -4z m-150 -10 c-7 -2 -19 -2 -25 0 -7
3 -2 5 12 5 14 0 19 -2 13 -5z m-120 -20 c-13 -2 -33 -2 -45 0 -13 2 -3 4 22
4 25 0 35 -2 23 -4z m420 0 c-7 -2 -21 -2 -30 0 -10 3 -4 5 12 5 17 0 24 -2
18 -5z m50 -10 c-7 -2 -19 -2 -25 0 -7 3 -2 5 12 5 14 0 19 -2 13 -5z m-266
-69 c-3 -3 -12 -4 -19 -1 -8 3 -5 6 6 6 11 1 17 -2 13 -5z m340 0 c-3 -3 -12
-4 -19 -1 -8 3 -5 6 6 6 11 1 17 -2 13 -5z m-444 -21 c-13 -2 -33 -2 -45 0
-13 2 -3 4 22 4 25 0 35 -2 23 -4z m340 -10 c-13 -2 -33 -2 -45 0 -13 2 -3 4
22 4 25 0 35 -2 23 -4z m-170 -40 c-7 -2 -19 -2 -25 0 -7 3 -2 5 12 5 14 0 19
-2 13 -5z m105 -140 c-10 -2 -26 -2 -35 0 -10 3 -2 5 17 5 19 0 27 -2 18 -5z
m-215 -10 c-13 -2 -33 -2 -45 0 -13 2 -3 4 22 4 25 0 35 -2 23 -4z m300 0
c-13 -2 -33 -2 -45 0 -13 2 -3 4 22 4 25 0 35 -2 23 -4z m125 0 c-10 -2 -26
-2 -35 0 -10 3 -2 5 17 5 19 0 27 -2 18 -5z m-125 -130 c-13 -2 -35 -2 -50 0
-16 2 -5 4 22 4 28 0 40 -2 28 -4z m135 -10 c-10 -2 -28 -2 -40 0 -13 2 -5 4
17 4 22 1 32 -1 23 -4z m-445 -20 c-7 -2 -21 -2 -30 0 -10 3 -4 5 12 5 17 0
24 -2 18 -5z m114 1 c-3 -3 -12 -4 -19 -1 -8 3 -5 6 6 6 11 1 17 -2 13 -5z
m-20 -80 c-3 -3 -12 -4 -19 -1 -8 3 -5 6 6 6 11 1 17 -2 13 -5z"/>
<path d="M4272 7032 c-66 -3 -74 -5 -84 -27 -8 -18 -8 -32 1 -53 7 -16 15 -76
18 -133 7 -135 6 -1457 -1 -1660 -5 -130 -3 -159 9 -169 10 -8 56 -12 139 -12
177 0 449 13 461 22 10 8 2234 5 2410 -3 55 -3 168 -8 251 -12 125 -7 152 -6
155 6 3 8 1 118 -4 244 -17 443 -12 1676 8 1760 10 45 -1 47 -176 35 -90 -7
-218 -12 -284 -14 -66 -1 -127 -5 -135 -9 -16 -7 -2159 -2 -2430 7 -91 3 -181
8 -200 11 -19 3 -42 7 -50 8 -8 2 -48 1 -88 -1z m2690 -546 c19 -9 24 -21 26
-65 2 -29 -1 -58 -7 -65 -6 -7 -6 -17 -1 -26 13 -20 13 -97 0 -105 -7 -4 -7
-12 0 -25 13 -25 13 -107 0 -115 -7 -4 -7 -12 -2 -18 6 -9 9 -325 3 -464 -2
-56 62 -53 -1101 -53 -955 0 -1070 2 -1084 16 -14 13 -16 70 -16 464 0 411 2
450 17 459 26 14 2136 12 2165 -3z"/>
<path d="M1562 6022 c-43 -4 -59 -41 -40 -86 14 -34 18 -385 5 -466 -19 -122
-20 -139 -4 -145 22 -9 102 -8 202 3 50 6 133 14 185 17 52 4 99 10 104 13 6
3 107 7 227 8 162 2 221 0 234 -10 16 -11 17 -85 17 -1166 l0 -1153 -38 -35
c-22 -19 -53 -40 -71 -48 -17 -7 -35 -19 -39 -25 -3 -6 -21 -18 -38 -25 -17
-8 -49 -28 -71 -44 -71 -53 -157 -110 -165 -110 -5 0 -15 -6 -22 -12 -42 -41
-124 -98 -187 -130 -13 -7 -36 -24 -51 -38 -15 -14 -44 -36 -64 -50 -20 -14
-53 -37 -73 -52 -20 -16 -40 -28 -45 -28 -5 0 -28 -18 -51 -39 -23 -22 -72
-60 -109 -84 -48 -31 -63 -46 -54 -53 7 -5 33 -23 59 -40 26 -17 70 -51 99
-75 74 -61 298 -291 298 -306 0 -7 6 -16 13 -20 6 -4 25 -25 40 -45 19 -26 36
-38 53 -38 13 0 24 3 24 8 0 4 25 34 55 67 30 33 55 63 55 67 0 8 144 188 189
236 17 19 31 37 31 40 0 4 14 21 30 39 17 18 30 35 30 38 0 4 41 47 91 96 129
128 280 201 318 155 7 -8 24 -17 38 -21 15 -3 38 -15 51 -26 14 -10 30 -19 37
-19 7 0 43 -21 81 -47 38 -25 98 -66 134 -90 36 -25 72 -50 80 -58 8 -7 51
-32 95 -55 44 -23 89 -49 100 -56 11 -8 33 -14 49 -14 16 0 44 -9 63 -21 18
-12 59 -27 91 -34 73 -17 175 -43 232 -60 68 -21 147 -35 190 -35 21 0 51 -5
67 -11 15 -6 42 -13 58 -15 17 -2 64 -8 105 -13 41 -6 138 -17 215 -26 77 -9
174 -21 215 -27 41 -5 120 -11 175 -13 55 -1 161 -5 235 -9 74 -3 252 -8 395
-10 143 -3 499 -10 790 -15 950 -18 1610 -31 1625 -33 8 0 67 0 131 0 114 2
117 3 134 28 9 15 18 45 20 68 1 22 14 73 28 111 14 39 27 82 29 97 2 15 11
35 20 45 9 10 19 34 23 53 4 19 15 44 25 55 9 11 34 52 55 90 21 39 51 82 67
96 15 14 28 29 28 32 0 3 11 18 25 33 14 15 24 32 22 38 -5 16 -90 15 -156 -1
-31 -7 -94 -15 -141 -18 -87 -6 -212 -19 -335 -36 -38 -6 -124 -12 -190 -15
-66 -3 -157 -9 -203 -15 -45 -5 -87 -7 -93 -4 -5 4 -33 1 -62 -6 -29 -7 -81
-13 -117 -15 -36 -1 -92 -5 -125 -7 -33 -3 -130 -8 -215 -11 -85 -4 -252 -11
-370 -17 -224 -12 -812 -16 -985 -7 -55 2 -122 0 -148 -5 -31 -6 -64 -5 -95 2
-26 6 -119 14 -207 17 -278 10 -475 26 -555 44 -25 5 -99 14 -165 20 -66 5
-158 19 -205 29 -47 11 -96 20 -110 20 -30 1 -180 44 -268 77 -34 13 -70 24
-79 24 -10 0 -40 11 -68 24 -27 14 -77 37 -110 52 -68 30 -105 57 -179 129
-102 99 -167 232 -185 380 -7 50 -14 106 -17 125 -10 58 -8 2435 1 2450 5 8 8
31 6 51 -1 20 3 56 9 79 13 49 5 97 -18 109 -10 5 -43 5 -77 0 -95 -14 -900
-21 -1090 -9 -93 6 -204 12 -245 13 -41 2 -88 7 -105 13 -16 5 -45 8 -63 6z"/>
<path d="M6581 4832 c-20 -38 -51 -128 -51 -149 0 -12 -11 -48 -25 -79 -14
-31 -25 -64 -25 -74 0 -22 -27 -87 -39 -94 -5 -4 -12 -24 -16 -46 -4 -22 -18
-62 -31 -90 -13 -27 -24 -57 -24 -65 0 -9 -9 -33 -19 -53 -11 -20 -36 -77 -56
-127 -19 -49 -44 -107 -55 -127 -11 -20 -20 -43 -20 -50 0 -17 -117 -250 -130
-258 -17 -10 -1842 -3 -1882 8 -21 5 -75 7 -121 5 -55 -4 -97 -1 -123 7 -38
13 -228 15 -268 3 -16 -4 -18 -12 -12 -57 11 -81 10 -505 -2 -519 -12 -14 -1
-47 22 -66 12 -10 47 -12 163 -6 227 10 3929 15 3998 5 33 -5 105 -10 160 -11
112 -2 114 -1 93 80 -14 55 -17 437 -4 501 14 68 11 87 -16 96 -23 7 -263 -12
-318 -26 -65 -16 -194 -21 -627 -23 -329 -1 -435 1 -444 10 -10 10 -3 33 34
107 26 52 47 98 47 102 0 4 6 15 14 23 7 9 33 54 57 101 25 47 55 99 67 115
12 17 22 33 22 38 0 7 18 33 109 154 24 32 93 108 154 170 61 62 108 116 103
120 -7 7 -81 31 -171 55 -22 5 -58 18 -80 28 -23 10 -61 23 -85 30 -25 7 -52
18 -60 25 -8 7 -34 18 -56 24 -23 6 -47 18 -54 26 -7 8 -16 15 -21 15 -17 0
-137 61 -149 75 -17 20 -47 19 -59 -3z"/>
<path d="M5010 4795 c-25 -13 -55 -24 -67 -25 -12 0 -44 -8 -70 -19 -26 -10
-91 -26 -143 -36 -52 -10 -100 -22 -106 -27 -6 -4 -38 -11 -72 -14 -61 -7 -77
-19 -66 -49 4 -8 10 -15 14 -15 4 0 18 -19 30 -42 12 -24 30 -52 40 -63 10
-11 23 -37 29 -59 5 -21 16 -46 24 -55 8 -9 20 -33 26 -53 7 -20 19 -42 27
-48 7 -7 14 -20 14 -30 0 -10 13 -47 30 -82 16 -34 30 -72 30 -84 0 -11 9 -39
20 -61 11 -23 24 -63 30 -89 6 -27 18 -60 27 -73 8 -13 17 -33 19 -45 11 -71
20 -91 42 -94 12 -2 37 5 55 16 17 11 49 22 70 25 20 3 44 13 53 21 8 9 27 18
42 21 15 3 47 12 72 21 38 13 83 25 190 49 31 7 115 47 122 58 4 6 1 18 -6 27
-12 15 -30 52 -62 125 -9 22 -25 51 -34 65 -10 14 -21 36 -25 50 -4 14 -20 53
-36 86 -16 34 -29 69 -29 77 0 8 -7 17 -15 21 -8 3 -15 13 -15 23 0 10 -11 36
-25 58 -13 22 -25 48 -25 57 0 9 -9 32 -19 50 -11 18 -27 56 -37 83 -9 28 -24
61 -34 75 -9 14 -20 37 -24 53 -8 34 -34 35 -96 2z"/>
</g>
</svg>
